<svg width="84" height="81" viewBox="0 0 84 81" fill="none" xmlns="http://www.w3.org/2000/svg">
<path d="M30.4647 35.8046C31.0668 36.3894 31.874 36.7166 32.7143 36.7166C33.5547 36.7166 34.3618 36.3894 34.9639 35.8046C34.9639 35.8046 34.9639 35.8046 35.0303 35.8046L39.8348 30.9845C40.4433 30.3861 41.2633 30.0506 42.1177 30.0506C42.972 30.0506 43.7921 30.3861 44.4005 30.9845L49.205 35.8046C49.205 35.8046 49.205 35.8046 49.2714 35.8046C49.8735 36.3894 50.6807 36.7166 51.521 36.7166C52.3614 36.7166 53.1685 36.3894 53.7707 35.8046L55.7748 33.8183L65.145 24.4695L79.8904 9.78424L71.7147 1.62723C71.4174 1.32855 71.0638 1.09151 70.6743 0.929748C70.2848 0.767989 69.8671 0.684715 69.4452 0.684715C69.0233 0.684715 68.6055 0.767989 68.216 0.929748C67.8265 1.09151 67.4729 1.32855 67.1756 1.62723L44.4005 24.3371C44.1009 24.6366 43.7451 24.8742 43.3534 25.0363C42.9617 25.1984 42.5417 25.2819 42.1177 25.2819C41.6936 25.2819 41.2737 25.1984 40.882 25.0363C40.4902 24.8742 40.1344 24.6366 39.8348 24.3371L17.073 1.62723C16.7746 1.32815 16.4199 1.09082 16.0292 0.928889C15.6386 0.766953 15.2198 0.683594 14.7968 0.683594C14.3738 0.683594 13.955 0.766953 13.5644 0.928889C13.1738 1.09082 12.8191 1.32815 12.5206 1.62723L4.38477 9.78424L19.0904 24.4695L30.4647 35.8046Z" fill="#3FB44A"/>
<path d="M53.837 45.4146C53.2343 44.8258 52.4243 44.4961 51.5808 44.4961C50.7372 44.4961 49.9272 44.8258 49.3245 45.4146C49.3245 45.4146 49.3245 45.4146 49.2581 45.4146L44.4669 50.2347C43.8562 50.8339 43.0339 51.1698 42.1774 51.1698C41.3208 51.1698 40.4986 50.8339 39.8879 50.2347L35.0701 45.4146C35.0701 45.4146 35.0701 45.4146 35.0038 45.4146C34.401 44.8258 33.591 44.4961 32.7475 44.4961C31.9039 44.4961 31.094 44.8258 30.4912 45.4146L28.5004 47.4009L19.1302 56.7497L4.38477 71.4085L12.5604 79.5655C12.8577 79.8642 13.2113 80.1012 13.6008 80.263C13.9903 80.4247 14.4081 80.508 14.83 80.508C15.2519 80.508 15.6696 80.4247 16.0591 80.263C16.4486 80.1012 16.8023 79.8642 17.0996 79.5655L39.8614 56.8556C40.4687 56.25 41.2922 55.9097 42.1509 55.9097C43.0095 55.9097 43.833 56.25 44.4403 56.8556L67.2022 79.5655C67.4995 79.8642 67.8531 80.1012 68.2426 80.263C68.6321 80.4247 69.0498 80.508 69.4717 80.508C69.8936 80.508 70.3114 80.4247 70.7009 80.263C71.0904 80.1012 71.444 79.8642 71.7413 79.5655L79.8904 71.4085L65.1715 56.7232L53.837 45.4146Z" fill="#3FB44A"/>
<path d="M39.8476 36.8365L35.9854 40.7164L39.8476 44.5698C40.4549 45.1755 41.2784 45.5157 42.137 45.5157C42.9957 45.5157 43.8192 45.1755 44.4265 44.5698L48.2887 40.7164L44.4265 36.8365C43.8192 36.2309 42.9957 35.8906 42.137 35.8906C41.2784 35.8906 40.4549 36.2309 39.8476 36.8365Z" fill="#3FB44A"/>
<path d="M44.426 17.3305L51.5001 10.2593L44.426 3.16164C43.8154 2.56239 42.9931 2.22656 42.1366 2.22656C41.28 2.22656 40.4578 2.56239 39.8471 3.16164L32.7598 10.2593L39.8471 17.3305C40.4544 17.9361 41.2779 18.2764 42.1366 18.2764C42.9952 18.2764 43.8188 17.9361 44.426 17.3305Z" fill="#FF931E"/>
<path d="M25.3806 42.4372C25.6803 42.1394 25.9182 41.7855 26.0805 41.3958C26.2428 41.0061 26.3264 40.5882 26.3264 40.1662C26.3264 39.7442 26.2428 39.3263 26.0805 38.9366C25.9182 38.5468 25.6803 38.1929 25.3806 37.8952L14.0196 26.5469L1.55693 38.9678C0.957964 39.5726 0.62207 40.3885 0.62207 41.2388C0.62207 42.089 0.957964 42.905 1.55693 43.5097L12.9445 54.8581L25.3806 42.4372Z" fill="#3FB44A"/>
<path d="M82.7167 37.8952L71.3424 26.5469L58.8931 38.9678C58.5933 39.2655 58.3554 39.6194 58.1931 40.0091C58.0308 40.3989 57.9473 40.8167 57.9473 41.2388C57.9473 41.6608 58.0308 42.0787 58.1931 42.4684C58.3554 42.8581 58.5933 43.212 58.8931 43.5097L70.2674 54.8581L82.7167 42.4372C83.0165 42.1394 83.2543 41.7855 83.4167 41.3958C83.579 41.0061 83.6625 40.5882 83.6625 40.1662C83.6625 39.7442 83.579 39.3263 83.4167 38.9366C83.2543 38.5468 83.0165 38.1929 82.7167 37.8952Z" fill="#3FB44A"/>
</svg>
